<?xml version="1.0" standalone="no"?>
<!DOCTYPE svg PUBLIC "-//W3C//DTD SVG 1.1//EN" "http://www.w3.org/Graphics/SVG/1.1/DTD/svg11.dtd">
<svg xmlns="http://www.w3.org/2000/svg">
<metadata>Generated by Fontastic.me</metadata>
<defs>
<font id="icons" horiz-adv-x="512">
<font-face font-family="icons" units-per-em="512" ascent="480" descent="-32"/>
<missing-glyph horiz-adv-x="512" />

<glyph unicode="&#57344;" d="M316 512l-118 0l-1-197l-197 0l0-117l198 0l0-198l118 0l0 198l196-1l0 118l-197 0z"/>
<glyph unicode="&#57364;" d="M293 224l0-96l-293 128l293 128l0-96l219 96l0-256z"/>
<glyph unicode="&#57365;" d="M66 361l-22 38c-13 23 3 58 58 90c55 32 93 28 106 5l23-40c-67-7-126-42-165-93z m285-226c-1-2-3-3-5-4c-1 0-2 0-3 0c-1 0-3 1-5 1l-99 67c-1 1-1 1-2 2c-2 1-3 4-3 6l0 117c0 2 1 5 3 7c1 1 4 3 6 3l24 0c2 0 5-1 6-3c1-2 3-5 3-7l0-99l85-58c5-3 5-8 3-12z m-94 243c-89 0-162-73-162-162c0-89 73-161 162-161c89 0 161 72 161 161c0 89-72 162-161 162z m215-163c0-118-97-215-215-215c-119 0-216 97-216 215c0 119 96 216 215 216c119 0 216-96 216-216z m-26 147c-39 50-99 85-167 92l23 40c14 23 51 27 107-5c55-32 71-67 57-90z"/>
<glyph unicode="&#57366;" d="M256 182l183-182l73 73l-183 183l183 183l-73 73l-183-183l-183 183l-73-73l183-183l-183-183l73-73z"/>
<glyph unicode="&#57367;" d="M256 267c-124 0-225 37-226 82l0 81c1 46 102 82 226 82c124 0 225-36 225-82l0-82c0-44-101-81-225-81z m0-133c-124 0-225 36-226 81l0 82c0-45 101-82 226-82c125 0 225 36 225 82l0-82c0-45-101-81-225-81z m0-134c-124 0-225 36-225 82l0 81c0-45 101-82 226-82c125 0 225 36 225 82l0-82c-1-45-102-81-226-81z"/>
<glyph unicode="&#57368;" d="M374 346l-80 0l0 54c0 20 13 25 22 25l57 0l0 86l-79 1c-86 0-106-65-106-107l0-59l-51 0l0-90l51 0l0-256l105 0l0 256l71 0z"/>
<glyph unicode="&#57369;" d="M219 288l0 96l293-128l-293-128l0 96l-219-96l0 256z"/>
<glyph unicode="&#57370;" d="M242 256l178-180l-75-76l-253 256l253 256l75-76z"/>
<glyph unicode="&#57371;" d="M439 371l-366 0l0-230l366 0z m0-307l-439 0l0 384l512 0l0-384z"/>
<glyph unicode="&#57372;" d="M0 430l512 0l0-69l-512 0z m0-139l512 0l0-70l-512 0z m0-209l0 69l512 0l0-69z"/>
<glyph unicode="&#57373;" d="M0 307l512 0l0-102l-512 0z"/>
<glyph unicode="&#57374;" d="M0 464l128 0l0-416l-128 0z m192-160l128 0l0-256l-128 0z m192 96l128 0l0-352l-128 0z"/>
<glyph unicode="&#57375;" d="M64 512l384-256l-384-256z"/>
<glyph unicode="&#57376;" d="M512 164l0 226c0 67-55 122-122 122l-4 0c-67 0-121-55-121-122l0-267c0-33-27-61-62-61l-4 0c-33 0-61 28-61 61l0 235l75 0l-106 116l-107-116l77 0l0-236c0-67 55-122 121-122l5 0c67 0 121 55 121 122l0 268c0 33 27 61 61 61l5 0c33 0 61-28 61-61l0-226"/>
<glyph unicode="&#57377;" d="M270 256l-178 180l75 76l253-256l-253-256l-75 76z"/>
<glyph unicode="&#57378;" d="M304 316c0-59-49-108-109-108c-60 0-109 49-109 108c0 61 49 109 109 109c60 0 109-48 109-109z m194-240l-137 137c18 30 29 66 29 103c0 109-87 196-195 196c-108 0-195-87-195-196c0-107 87-194 195-194c38 0 74 10 104 29l137-137c9-9 21-14 34-14c11 0 21 4 30 12c8 9 12 19 12 30c0 13-5 25-14 34z"/>
<glyph unicode="&#57379;" d="M171 398c-36-16-64-31-86-57l-28 0l0-227l341 0l0 57l57 28l0-142l-455 0l0 341l171 0c0 0 1 1 0 0z m341-77l-192-133l0 86c-42 0-68-2-86-4c-107-13-135-82-135-82c1 169 221 187 221 187l0 80z"/>
<glyph unicode="&#57380;" d="M339 171c-12 0-24-5-24-5c-5-1-13 0-16 5l-43 43c-4 4-6 11-4 17c0 0 5 13 5 26c0 11-4 22-4 22c-1 6 0 13 4 18l44 44c3 4 11 5 16 4c0 0 12-4 22-4c46 0 83 39 83 86c0 47-37 85-83 85c-46 0-83-38-83-85c0-12 4-25 4-25c1-4 0-12-5-17l-42-43c-4-4-12-6-17-4c0 0-12 4-23 4c-46 0-83-38-83-85c0-47 37-86 83-86c10 0 21 3 21 3c5 2 13 0 16-4l45-46c3-4 5-11 4-17c0 0-4-11-4-22c0-47 38-86 83-86c47 0 84 39 84 86c0 47-37 86-83 86z"/>
<glyph unicode="&#57381;" d="M284 222c5-5 10-10 15-14c22-19 40-27 52-27l54 0l0 61l107-96l-107-95l0 58l-54 0c-27 0-52 11-74 26c-14 10-27 22-40 34c9 10 18 21 28 31z m-155 65c-6 5-11 10-17 15c-21 18-39 26-50 26l-62 0l0 72l62 0c28 0 52-11 73-26c14-10 28-22 41-35l-26-29z m276 41l-55 0c-9 0-20-4-35-14c-15-10-31-26-48-44c-35-37-71-84-111-119c-27-22-58-41-95-41l-61 0l0 71l61 0c9 0 21 5 36 15c15 10 32 25 49 44c35 37 70 84 111 118c26 22 57 42 94 42l54 0l0 61l107-96l-107-95z"/>
<glyph unicode="&#57382;" d="M0 512l192 0l0-512l-192 0z m320-512l0 512l192 0l0-512z"/>
<glyph unicode="&#57383;" d="M161 39c-59 0-114 18-161 49c9-1 16-1 25-1c49 0 94 18 131 47c-46 0-85 32-98 76c6-2 12-2 20-2c9 0 19 1 27 4c-48 10-84 54-84 107l0 1c14-8 30-13 47-14c-28 20-47 54-47 92c0 19 5 39 15 54c51-66 129-109 216-114c-2 8-2 16-2 25c0 60 47 109 105 109c30 0 57-13 77-34c24 5 46 14 66 26c-7-25-24-47-46-60c22 3 42 8 61 17c-15-22-32-41-53-57c0-5 0-9 0-14c0-144-106-311-299-311z"/>
<glyph unicode="&#57384;" d="M342 169l-86 86l-86-86l-100 0l186 184l186-184z m100-169l-100 0l-86 85l-86-85l-100 0l186 184z m-186 412l-86-84l-100 0l186 184l186-184l-100 0z"/>
<glyph unicode="&#57385;" d="M0 171l0 170l86 0l171 171l0-512l-170 171z m324-21l-27 51c17 14 27 33 27 56c0 22-10 42-27 55l0 1l26 50c35-22 58-62 58-106c0-44-23-84-57-107z m58-114l-26 50c59 34 99 98 99 171c0 72-40 136-99 170l0 2l26 50c77-44 130-127 130-222c0-95-53-178-130-221z"/>
<glyph unicode="&#57345;" d="M419 395c-48 47-59 59-106 106c-1 0-1 0-2 1c0 0 0 0 0 1c-11 10-23 10-34 5c-10-4-18-13-19-27c0-2 0-3 0-4c0-107 0-142 0-251c0-33 1-67 0-100c-2-39-33-71-75-62c-19 4-34 22-37 41c-2 31 33 47 56 56c37 14 21 74-16 59c-47-17-90-44-100-97c-7-38 13-82 46-103c88-56 181 13 188 107c9 114 4 182 1 278c15-15 30-30 54-54c28-29 72 15 44 44z"/>
<glyph unicode="&#57346;" d="M271 507c-4 3-9 5-15 5l-1 0c-5 0-11-2-14-4c-3-3-6-6-6-9l0-117c0-3 2-6 6-9c4-3 9-4 16-4c6 0 12 2 15 4c4 3 6 6 6 9l0 117c-1 2-3 6-7 8z m0-368c-4 3-9 4-16 4c-6 0-12-2-15-4c-4-3-6-6-6-9l0-117c0-3 1-6 6-9c3-3 9-4 15-4c7 0 12 2 16 4c3 3 6 6 6 9l0 117c0 3-2 7-6 9z m237 133c-3 3-6 5-9 5l-117 0c-3 0-6-1-9-5c-3-4-4-10-4-16c0-6 2-12 4-16c3-3 6-5 9-5l117 0c3 0 6 1 9 5c3 4 4 10 4 16l0 1c0 6-2 11-4 15z m-369-32c3 4 4 10 4 16c0 6-2 12-4 16c-3 3-6 5-9 5l-117 0c-3 0-6-1-9-5c-2-4-4-10-4-16c0-6 2-12 4-16c3-3 6-5 9-5l117 0c3 0 6 2 9 5z m211 86c0-5 1-9 3-14c5-8 13-13 18-12c2 0 3 0 4 1l102 58c3 2 5 6 5 11c0 4-1 8-3 13l-1 1c-5 8-12 11-17 11c-2 0-3 0-4 0l-102-59c-2 0-5-5-5-10z m-38 28c5-3 9-3 14-3c5 0 9 2 10 5l59 101c0 1 0 2 0 5c0 4-4 12-12 17l-1 0c-4 3-9 4-13 4c-6 0-9-2-11-5l-58-102c-1-1-1-2-1-4c1-5 5-13 13-18z m-195 103l58-102c1-3 6-5 11-5c4 0 8 1 13 3c9 5 13 13 12 18c0 2 0 3-1 4l-58 102c-1 3-6 5-10 5c-5 0-9-1-14-3l-1-1c-8-5-11-12-11-17c0-2 0-4 1-4z m-82-97l102-58c0-1 2-1 4-1c5 0 13 4 18 12c2 5 3 9 3 13c0 6-2 10-5 11l-102 58c0 1-2 1-4 1c-5 0-13-4-18-13l0 0c-2-5-3-10-3-13c0-5 2-9 5-10z m127-174c0 5-1 9-3 14c-5 8-13 13-18 12c-2 0-3 0-4-1l-102-59c-3-1-5-6-5-10c0-5 1-9 3-14l1-1c5-8 12-11 17-11c2 0 3 1 4 1l102 58c3 1 5 6 5 11z m38-28c-5 3-9 3-14 3c-5 0-9-2-10-5l-59-101c0-1 0-2 0-5c0-4 4-12 12-17l1 0c4-3 9-4 13-4c6 0 9 2 11 5l58 102c1 1 1 2 1 4c-1 6-5 13-13 18z m195-103l-58 102c-1 3-6 5-11 5c-4 0-8-1-13-3c-9-5-13-13-12-18c0-2 0-3 1-4l58-102c1-3 6-5 10-5c5 0 9 1 14 3l1 1c8 5 11 12 11 17c1 2 0 4-1 4z m82 97l-102 58c0 1-2 1-4 1c-5 0-13-4-18-12c-2-5-3-9-3-13c0-6 2-10 5-11l102-58c0-1 2-1 4-1c5 0 13 4 18 13l0 0c2 5 3 10 3 13c0 5-2 9-5 10z"/>
<glyph unicode="&#57347;" d="M256 512c-142 0-256-114-256-256c0-142 114-256 256-256c142 0 256 114 256 256c0 142-114 256-256 256z m0-339c-46 0-83 37-83 83c0 46 37 83 83 83c46 0 83-37 83-83c0-46-37-83-83-83z m13 83c0-7-6-13-13-13c-7 0-13 6-13 13c0 7 6 13 13 13c7 0 13-6 13-13z"/>
<glyph unicode="&#57348;" d="M60 103l-37-33l0 79c-1-17 13-33 37-46z m118 105l-77-69c-48 16-79 39-79 64l0 85c0-37 65-68 156-80z m100 50l-22 19l-21-19c-120 4-213 40-213 84l0 85c0 47 105 85 234 85c129 0 234-38 234-85l0-84c0-45-93-81-212-85z m133-118l-77 68c91 11 156 43 156 79l0-84c0-25-31-48-79-63z m42-37c23 14 37 29 37 46l0-79z m-85-103l-112 108l-112-108l-131 0l243 235l243-235z"/>
</font>
</defs>
</svg>
